<?xml version="1.0" encoding="utf-8"?>
<!-- Generator: Adobe Illustrator 21.1.0, SVG Export Plug-In . SVG Version: 6.00 Build 0)  -->
<svg version="1.1" id="Layer_1" xmlns="http://www.w3.org/2000/svg" xmlns:xlink="http://www.w3.org/1999/xlink" x="0px" y="0px"
	 viewBox="0 0 283.5 283.5" style="enable-background:new 0 0 283.5 283.5;" xml:space="preserve">
<style type="text/css">
	.st0{clip-path:url(#SVGID_2_);fill:none;stroke:#F7CBC7;stroke-width:7;stroke-miterlimit:10;}
	.st1{clip-path:url(#SVGID_2_);fill:none;stroke:#10FF76;stroke-width:7;stroke-miterlimit:10;}
	
		.st2{clip-path:url(#SVGID_2_);fill:none;stroke:#F7CBC7;stroke-width:7;stroke-linecap:round;stroke-linejoin:round;stroke-miterlimit:10;}
	.st3{clip-path:url(#SVGID_2_);fill:#F7CBC7;stroke:#F7CBC7;stroke-width:0.75;stroke-miterlimit:10;}
</style>
<g>
	<defs>
		<rect id="SVGID_1_" x="-18.3" y="-18.3" width="320" height="320"/>
	</defs>
	<clipPath id="SVGID_2_">
		<use xlink:href="#SVGID_1_"  style="overflow:visible;"/>
	</clipPath>
	<circle class="st0" cx="141.7" cy="138.6" r="101.6"/>
	<path class="st1" d="M74,138.3c0-12.5,3.6-25.2,10.9-36.5c20.3-31.4,62.3-40.4,93.7-20c31.4,20.3,40.4,62.3,20,93.7
		c-20.3,31.4-62.3,40.4-93.7,20"/>
	<path class="st2" d="M277.2,138.6c0,74.8-60.7,135.5-135.5,135.5S6.3,213.4,6.3,138.6l67.7-0.3c-0.1,29.4,19.1,56.6,48.8,65.3
		c35.9,10.5,73.5-10.1,84-46c10.5-35.9-10.1-73.5-46-84c-12.9-3.8-26.1-3.5-38.1,0"/>
	<path class="st3" d="M123.1,158.2h-20.6v-2.1l10.8-12.2c0.8-0.9,1.5-1.8,2.2-2.6c0.7-0.8,1.3-1.6,1.7-2.5c0.5-0.8,0.9-1.6,1.1-2.4
		c0.3-0.8,0.4-1.6,0.4-2.5c0-1-0.2-1.9-0.5-2.7c-0.3-0.8-0.8-1.5-1.4-2.1c-0.6-0.6-1.3-1.1-2.2-1.4c-0.8-0.3-1.8-0.5-2.8-0.5
		c-1.2,0-2.2,0.2-3.1,0.6c-0.9,0.4-1.7,0.9-2.3,1.6c-0.6,0.7-1.1,1.5-1.4,2.4c-0.3,0.9-0.5,1.9-0.5,3h-2.7c0-1.4,0.3-2.6,0.7-3.8
		c0.5-1.2,1.2-2.3,2-3.2c0.9-0.9,1.9-1.6,3.1-2.1c1.2-0.5,2.6-0.8,4.1-0.8c1.4,0,2.8,0.2,3.9,0.6c1.2,0.4,2.2,1,3,1.8
		c0.8,0.8,1.5,1.7,2,2.8c0.5,1.1,0.7,2.3,0.7,3.7c0,1.1-0.2,2.1-0.6,3.2c-0.4,1-0.9,2-1.5,3c-0.6,1-1.3,1.9-2.1,2.8
		c-0.8,0.9-1.5,1.8-2.3,2.7l-9.2,10.4h17.3V158.2z"/>
	<path class="st3" d="M136.4,140.3h2.7c1,0,2-0.2,3-0.4c0.9-0.3,1.7-0.7,2.5-1.2c0.7-0.5,1.3-1.2,1.7-2c0.4-0.8,0.6-1.7,0.6-2.7
		c0-1.1-0.2-2-0.5-2.9s-0.8-1.5-1.4-2.1c-0.6-0.6-1.3-1-2.2-1.3c-0.9-0.3-1.8-0.5-2.8-0.5c-1,0-2,0.2-2.9,0.5
		c-0.9,0.3-1.6,0.8-2.3,1.4c-0.6,0.6-1.1,1.3-1.5,2.1c-0.4,0.8-0.6,1.8-0.6,2.8h-2.7c0-1.3,0.3-2.5,0.8-3.6c0.5-1.1,1.2-2.1,2.1-2.9
		c0.9-0.8,1.9-1.4,3.1-1.9c1.2-0.5,2.5-0.7,3.9-0.7c1.4,0,2.7,0.2,3.9,0.6c1.2,0.4,2.2,1,3,1.8c0.8,0.8,1.5,1.7,2,2.9
		c0.5,1.1,0.7,2.4,0.7,3.9c0,0.8-0.1,1.6-0.4,2.3c-0.3,0.7-0.6,1.4-1.1,2.1c-0.5,0.6-1.1,1.2-1.8,1.7c-0.7,0.5-1.5,0.9-2.4,1.2
		c2,0.6,3.6,1.6,4.7,2.9c1.1,1.4,1.6,3.1,1.6,5c0,1.5-0.3,2.8-0.8,4c-0.5,1.2-1.2,2.1-2.2,2.9c-0.9,0.8-2,1.4-3.2,1.8
		c-1.2,0.4-2.5,0.6-4,0.6c-1.4,0-2.8-0.2-4.1-0.6c-1.3-0.4-2.4-1-3.3-1.9c-1-0.8-1.7-1.8-2.3-2.9c-0.6-1.2-0.8-2.5-0.9-3.9h2.7
		c0,1.1,0.2,2.1,0.7,2.9c0.4,0.9,1,1.6,1.7,2.2c0.7,0.6,1.5,1.1,2.5,1.4c0.9,0.3,2,0.5,3.1,0.5c1.1,0,2.1-0.1,3-0.5
		c0.9-0.3,1.7-0.7,2.3-1.3c0.7-0.6,1.2-1.3,1.5-2.2c0.4-0.9,0.6-1.9,0.6-3c0-1.2-0.2-2.2-0.7-3.1c-0.4-0.9-1-1.5-1.8-2.1
		c-0.8-0.5-1.6-0.9-2.6-1.2c-1-0.3-2.1-0.4-3.2-0.4h-2.7V140.3z"/>
	<path class="st3" d="M156,131.4c0-0.8,0.1-1.6,0.4-2.4c0.2-0.8,0.6-1.5,1.1-2.1c0.5-0.6,1.1-1.1,1.8-1.5c0.7-0.4,1.5-0.6,2.5-0.6
		c0.9,0,1.8,0.2,2.5,0.6c0.7,0.4,1.3,0.9,1.8,1.5c0.5,0.6,0.8,1.3,1.1,2.1c0.3,0.8,0.4,1.6,0.4,2.4v1.7c0,0.8-0.1,1.6-0.4,2.4
		c-0.2,0.8-0.6,1.5-1.1,2.1c-0.5,0.6-1.1,1.1-1.8,1.5c-0.7,0.4-1.5,0.6-2.5,0.6c-0.9,0-1.8-0.2-2.5-0.6c-0.7-0.4-1.3-0.9-1.8-1.5
		c-0.5-0.6-0.8-1.3-1.1-2.1c-0.2-0.8-0.4-1.6-0.4-2.4V131.4z M158.2,133.2c0,0.5,0.1,1.1,0.2,1.6c0.1,0.5,0.3,1,0.6,1.5
		c0.3,0.4,0.7,0.8,1.1,1.1c0.5,0.3,1,0.4,1.6,0.4c0.6,0,1.2-0.1,1.6-0.4c0.4-0.3,0.8-0.6,1.1-1.1c0.3-0.4,0.5-0.9,0.6-1.5
		c0.1-0.5,0.2-1.1,0.2-1.6v-1.7c0-0.6-0.1-1.1-0.2-1.7c-0.1-0.5-0.3-1-0.6-1.5c-0.3-0.4-0.7-0.8-1.1-1.1c-0.5-0.3-1-0.4-1.6-0.4
		c-0.6,0-1.2,0.1-1.6,0.4c-0.4,0.3-0.8,0.6-1.1,1.1c-0.3,0.4-0.5,0.9-0.6,1.5c-0.1,0.6-0.2,1.1-0.2,1.6V133.2z M163.1,154.6l-1.7-1
		l13.4-24.6l1.7,1L163.1,154.6z M170.2,150.3c0-0.8,0.1-1.6,0.4-2.4c0.2-0.8,0.6-1.5,1.1-2.1c0.5-0.6,1.1-1.1,1.8-1.5
		c0.7-0.4,1.5-0.6,2.5-0.6c1,0,1.8,0.2,2.5,0.6c0.7,0.4,1.3,0.9,1.8,1.5c0.5,0.6,0.8,1.3,1.1,2.1c0.3,0.8,0.4,1.6,0.4,2.4v1.8
		c0,0.8-0.1,1.6-0.4,2.4c-0.2,0.8-0.6,1.5-1.1,2.1c-0.5,0.6-1.1,1.1-1.8,1.5c-0.7,0.4-1.5,0.6-2.5,0.6c-1,0-1.8-0.2-2.5-0.6
		c-0.7-0.4-1.3-0.9-1.8-1.5c-0.5-0.6-0.8-1.3-1.1-2.1c-0.2-0.8-0.4-1.6-0.4-2.4V150.3z M172.4,152.1c0,0.6,0.1,1.1,0.2,1.7
		c0.1,0.5,0.3,1,0.6,1.5c0.3,0.4,0.7,0.8,1.1,1.1c0.4,0.3,1,0.4,1.6,0.4c0.6,0,1.2-0.1,1.6-0.4c0.4-0.3,0.8-0.6,1.1-1.1
		c0.3-0.4,0.5-0.9,0.6-1.5c0.1-0.5,0.2-1.1,0.2-1.7v-1.8c0-0.6-0.1-1.1-0.2-1.7c-0.1-0.5-0.3-1-0.6-1.5c-0.3-0.4-0.6-0.8-1.1-1.1
		c-0.4-0.3-1-0.4-1.6-0.4c-0.6,0-1.2,0.1-1.6,0.4c-0.4,0.3-0.8,0.6-1.1,1.1c-0.3,0.4-0.5,0.9-0.6,1.5c-0.1,0.5-0.2,1.1-0.2,1.7
		V152.1z"/>
</g>
</svg>
