<?xml version="1.0" encoding="utf-8"?>
<!-- Generator: Adobe Illustrator 21.1.0, SVG Export Plug-In . SVG Version: 6.00 Build 0)  -->
<svg version="1.1" id="Layer_1" xmlns="http://www.w3.org/2000/svg" xmlns:xlink="http://www.w3.org/1999/xlink" x="0px" y="0px"
	 viewBox="0 0 283.5 283.5" style="enable-background:new 0 0 283.5 283.5;" xml:space="preserve">
<style type="text/css">
	.st0{clip-path:url(#SVGID_2_);}
	.st1{clip-path:url(#SVGID_4_);fill:none;stroke:#F7CBC7;stroke-width:8;stroke-miterlimit:10;}
	.st2{opacity:0.2;clip-path:url(#SVGID_4_);}
	.st3{clip-path:url(#SVGID_8_);}
	.st4{opacity:0.2;clip-path:url(#SVGID_10_);}
	.st5{opacity:0.2;clip-path:url(#SVGID_14_);}
	.st6{clip-path:url(#SVGID_16_);fill:none;stroke:#FFFFFF;stroke-miterlimit:10;}
	.st7{clip-path:url(#SVGID_18_);fill:#F7CBC7;}
	.st8{clip-path:url(#SVGID_20_);fill:#F7CBC7;}
	.st9{clip-path:url(#SVGID_20_);fill:none;stroke:#F7CBC7;stroke-width:3.5;stroke-linecap:round;stroke-miterlimit:10;}
</style>
<g>
	<defs>
		<rect id="SVGID_1_" width="283.5" height="283.5"/>
	</defs>
	<clipPath id="SVGID_2_">
		<use xlink:href="#SVGID_1_"  style="overflow:visible;"/>
	</clipPath>
	<g class="st0">
		<defs>
			<rect id="SVGID_3_" width="283.5" height="283.5"/>
		</defs>
		<clipPath id="SVGID_4_">
			<use xlink:href="#SVGID_3_"  style="overflow:visible;"/>
		</clipPath>
		<path class="st1" d="M276.4,141.7c0,74.4-60.3,134.6-134.6,134.6c-74.4,0-134.6-60.3-134.6-134.6C7.1,67.4,67.4,7.1,141.7,7.1
			C216.1,7.1,276.4,67.4,276.4,141.7"/>
		<g class="st2">
			<g>
				<defs>
					<path id="SVGID_5_" d="M141.7,240.5L141.7,240.5z"/>
				</defs>
				<clipPath id="SVGID_6_">
					<use xlink:href="#SVGID_5_"  style="overflow:visible;"/>
				</clipPath>
			</g>
		</g>
	</g>
	<g class="st0">
		<defs>
			<rect id="SVGID_7_" x="68.3" y="62" width="146.9" height="178.5"/>
		</defs>
		<clipPath id="SVGID_8_">
			<use xlink:href="#SVGID_7_"  style="overflow:visible;"/>
		</clipPath>
		<g class="st3">
			<defs>
				<path id="SVGID_9_" d="M141.7,240.5"/>
			</defs>
			<clipPath id="SVGID_10_">
				<use xlink:href="#SVGID_9_"  style="overflow:visible;"/>
			</clipPath>
			<g class="st4">
				<g>
					<defs>
						<path id="SVGID_11_" d="M141.7,240.5L141.7,240.5z"/>
					</defs>
					<clipPath id="SVGID_12_">
						<use xlink:href="#SVGID_11_"  style="overflow:visible;"/>
					</clipPath>
				</g>
			</g>
		</g>
	</g>
	<g class="st0">
		<defs>
			<rect id="SVGID_13_" width="283.5" height="283.5"/>
		</defs>
		<clipPath id="SVGID_14_">
			<use xlink:href="#SVGID_13_"  style="overflow:visible;"/>
		</clipPath>
		<g class="st5">
			<g>
				<defs>
					<path id="SVGID_15_" d="M141.7,240.5L141.7,240.5z"/>
				</defs>
				<clipPath id="SVGID_16_">
					<use xlink:href="#SVGID_15_"  style="overflow:visible;"/>
				</clipPath>
				<path class="st6" d="M141.7,240.5"/>
			</g>
		</g>
	</g>
	<g class="st0">
		<defs>
			
				<rect id="SVGID_17_" x="73" y="51.8" transform="matrix(0.7083 -0.7059 0.7059 0.7083 -44.4608 135.4971)" width="137.5" height="139.4"/>
		</defs>
		<clipPath id="SVGID_18_">
			<use xlink:href="#SVGID_17_"  style="overflow:visible;"/>
		</clipPath>
		<path class="st7" d="M174.5,77.2c0,8.9-3.5,17.3-9.8,23.6c-5,4.9-11.2,8.1-18.1,9.3c-1.1,0.2-1.9,1.1-1.9,2.2l-0.1,46.6
			c0,0.6,0.2,1.2,0.6,1.6c0.4,0.4,1,0.7,1.6,0.7l14.8,0c1,0,1.9,0.4,2.6,1.1c0.7,0.7,1.1,1.6,1.1,2.6c0,1-0.4,1.9-1.1,2.6
			c-0.7,0.7-1.6,1.1-2.6,1.1l-8.9,0c-1.2,0-2.2,1-2.2,2.2l0,11.9c0,1.2,1,2.2,2.2,2.2l8.9,0c2,0,3.7,1.7,3.7,3.7
			c0,1-0.4,1.9-1.1,2.6c-0.7,0.7-1.6,1.1-2.6,1.1l-14.8,0c-0.6,0-1.2,0.2-1.6,0.6c-0.4,0.4-0.7,1-0.7,1.6l0,12.2
			c0,1-0.4,1.9-1.1,2.6c-0.7,0.7-1.6,1.1-2.6,1.1c-2,0-3.7-1.7-3.7-3.7l0.2-94.4c0-1.1-0.8-2-1.9-2.2c-16.1-2.7-27.8-16.6-27.8-33
			c0-8.9,3.5-17.3,9.8-23.6c6.3-6.3,14.7-9.7,23.6-9.7c8.9,0,17.3,3.5,23.6,9.8C171.1,59.9,174.5,68.3,174.5,77.2 M141.2,39.3
			c-10.1,0-19.6,3.9-26.8,11c-7.2,7.1-11.1,16.6-11.1,26.7c0,9,3.2,17.7,9,24.6c5.3,6.3,12.6,10.6,20.6,12.4l-0.2,92.6
			c0,4.5,3.6,8.2,8.1,8.2c2.2,0,4.2-0.8,5.8-2.4c1.5-1.5,2.4-3.6,2.4-5.8l0-9.9l12.6,0c2.2,0,4.2-0.8,5.8-2.4
			c1.5-1.5,2.4-3.6,2.4-5.8c0-4.5-3.6-8.2-8.1-8.2l-6.7,0l0-7.4l6.7,0c2.2,0,4.2-0.8,5.8-2.4c1.5-1.5,2.4-3.6,2.4-5.8
			c0-2.2-0.8-4.2-2.4-5.8c-1.5-1.5-3.6-2.4-5.8-2.4l-12.6,0l0.1-42.6c7-1.5,13.4-5,18.6-10.2c7.2-7.1,11.1-16.6,11.1-26.7
			c0-10.1-3.9-19.6-11-26.8C160.8,43.3,151.3,39.3,141.2,39.3"/>
	</g>
	<g class="st0">
		<defs>
			<rect id="SVGID_19_" width="283.5" height="283.5"/>
		</defs>
		<clipPath id="SVGID_20_">
			<use xlink:href="#SVGID_19_"  style="overflow:visible;"/>
		</clipPath>
		<path class="st8" d="M157.1,59.4c-0.9,0.8-1,2.2-0.1,3.1c3.7,4,5.7,9.2,5.7,14.6c0,5.7-2.3,11.1-6.3,15.2
			c-4.1,4.1-9.5,6.3-15.2,6.3c-11.9,0-21.5-9.7-21.5-21.5c0-5.7,2.3-11.1,6.3-15.2c4.1-4.1,9.5-6.3,15.2-6.3c3.2,0,6.4,0.7,9.3,2.1
			c1.1,0.5,2.4,0.1,3-1c0.5-1.1,0.1-2.4-1-3c-3.5-1.7-7.3-2.5-11.2-2.5c-6.9,0-13.5,2.7-18.4,7.6c-4.9,4.9-7.6,11.4-7.6,18.3
			c0,14.3,11.6,26,25.9,26c6.9,0,13.5-2.7,18.4-7.6s7.6-11.4,7.6-18.3c0-6.5-2.4-12.8-6.8-17.6C159.4,58.7,158,58.6,157.1,59.4"/>
		<path class="st9" d="M179.5,96.5c21.4,12.8,35.7,36.3,35.7,63c0,40.6-32.9,73.4-73.4,73.4c-40.6,0-73.4-32.9-73.4-73.4
			c0-26,13.6-48.9,34-62"/>
	</g>
</g>
</svg>
