<?xml version="1.0" encoding="utf-8"?>
<!-- Generator: Adobe Illustrator 21.1.0, SVG Export Plug-In . SVG Version: 6.00 Build 0)  -->
<svg version="1.1" id="Layer_1" xmlns="http://www.w3.org/2000/svg" xmlns:xlink="http://www.w3.org/1999/xlink" x="0px" y="0px"
	 viewBox="0 0 64 64" style="enable-background:new 0 0 64 64;" xml:space="preserve">
<style type="text/css">
	.st0{fill:url(#SVGID_1_);}
	.st1{fill:#FFFFFF;}
	.st2{clip-path:url(#SVGID_3_);}
	.st3{opacity:0.2;fill:#FFFFFF;enable-background:new    ;}
	.st4{fill:url(#SVGID_4_);}
	.st5{fill:url(#SVGID_5_);}
</style>
<title>MyEtherWalelt Logo</title>
<linearGradient id="SVGID_1_" gradientUnits="userSpaceOnUse" x1="52.792" y1="64.5987" x2="-5.428" y2="-21.0813" gradientTransform="matrix(1 0 0 -1 0 66)">
	<stop  offset="0" style="stop-color:#1ABC9C"/>
	<stop  offset="1" style="stop-color:#1A5DAF"/>
</linearGradient>
<circle class="st0" cx="32" cy="32" r="32"/>
<path class="st1" d="M32,32"/>
<g>
	<defs>
		<circle id="SVGID_2_" cx="32" cy="32" r="32"/>
	</defs>
	<clipPath id="SVGID_3_">
		<use xlink:href="#SVGID_2_"  style="overflow:visible;"/>
	</clipPath>
	<g class="st2">
		<path class="st3" d="M61,32.3L51,56.8l-5.3-12.5l4.8-11.8h-2.6l-3.9,9.8L40,32.5h-2.6l4.8,11.8L37,56.8L27,32.3l-5-11.9l5.2-12.5
			l10,24.5h3L28.4,4.7H26l-5.8,13.6L14.3,4.7h-2.4L0.2,32.4h2.9L13.2,7.9l5.3,12.5l-4.8,11.8h2.6l3.9-9.8l3.9,9.9L35.7,60h2.4
			L44,46.3L49.8,60h2.4l11.7-27.7C63.9,32.3,61,32.3,61,32.3z"/>
		
			<linearGradient id="SVGID_4_" gradientUnits="userSpaceOnUse" x1="31.9356" y1="65.6436" x2="22.9557" y2="5.6736" gradientTransform="matrix(1 0 0 -1 0 66)">
			<stop  offset="0" style="stop-color:#1ABC9C"/>
			<stop  offset="1" style="stop-color:#1A5DAF"/>
		</linearGradient>
		<path class="st4" d="M34.3,44.5c-0.8,0.2-1.6,0.3-2.3,0.3c-5.6,0-10.3-4.3-10.7-10.6c0.1-1.2,0.3-2.4,0.6-3.6L13.2,27
			c-0.9,2.5-1.4,5.1-1.4,7.7c0,10.8,9.3,19.6,20.1,19.6c2.5,0,5-0.5,7.3-1.4L34.3,44.5z"/>
		
			<linearGradient id="SVGID_5_" gradientUnits="userSpaceOnUse" x1="41.5645" y1="64.1993" x2="32.5745" y2="4.2293" gradientTransform="matrix(1 0 0 -1 0 66)">
			<stop  offset="0" style="stop-color:#1ABC9C"/>
			<stop  offset="1" style="stop-color:#1A5DAF"/>
		</linearGradient>
		<path class="st5" d="M32,14c-2.8,0-5.6,0.6-8.1,1.8l4.9,8.3c1.1-0.4,2.2-0.6,3.3-0.5c4.9,0,10.2,4.1,10.7,9.2l-14,0.1l21.9,9.3
			c1.1-2.6,1.6-5.5,1.5-8.3C52.1,23,42.8,14,32,14z"/>
		<path class="st1" d="M34.3,42.4c-0.8,0.2-1.6,0.3-2.3,0.3c-5.6,0-10.3-4.3-10.7-10.6c0.1-1.2,0.3-2.4,0.6-3.6l-8.7-3.7
			c-0.9,2.5-1.4,5.1-1.4,7.7c0,10.8,9.3,19.6,20.1,19.6c2.5,0,5-0.5,7.3-1.4L34.3,42.4z M32,11.9c-2.8,0-5.6,0.6-8.1,1.8l4.9,8.3
			c1.1-0.4,2.2-0.6,3.3-0.5c4.9,0,10.2,4.1,10.7,9.2l-14,0.1L50.5,40c1.1-2.6,1.6-5.5,1.5-8.3C52.1,20.8,42.8,11.9,32,11.9z"/>
	</g>
</g>
</svg>
