<?xml version="1.0" encoding="utf-8"?>
<!-- Generator: Adobe Illustrator 21.1.0, SVG Export Plug-In . SVG Version: 6.00 Build 0)  -->
<svg version="1.1" id="Layer_1" xmlns="http://www.w3.org/2000/svg" xmlns:xlink="http://www.w3.org/1999/xlink" x="0px" y="0px"
	 viewBox="0 0 250 250" style="enable-background:new 0 0 250 250;" xml:space="preserve">
<style type="text/css">
	.st0{fill:#3F19F8;}
</style>
<g>
	<path class="st0" d="M196.7,80.8c-0.6,13.8-1.2,27.5-2.6,41.3c-1.1,10.3-2.6,20.5-5.7,30.4c-3,9.8-7.8,18.4-15.6,25.3
		c-5.4,4.8-11.5,8.5-17.7,12c-8,4.5-16.1,8.8-23.7,14c-4.1,2.8-8,2.5-11.6,0c-7.9-5.5-16.4-9.8-24.8-14.6
		c-5.7-3.2-11.3-6.6-16.4-10.7c-8.6-7-13.9-16-17.1-26.4c-2.4-7.9-3.8-16.1-4.8-24.3c-1.5-12.2-2.1-24.4-2.4-36.7
		c-0.2-6.6-0.3-13.2-0.4-19.8c0-1.7,0.3-3.2,1.2-4.7c1.5-2.6,4.2-3.2,6.8-3.5c3.5-0.3,7.1-0.2,10.7-0.3c16.2-0.8,31.3-4.9,44.9-14.1
		c0.9-0.6,1.8-1.3,2.6-1.9c2.2-1.5,4.6-2.3,7.4-1.8c1,0.2,2,0.6,2.8,1.3c9.8,7.5,20.9,12.1,32.9,14.6c8.1,1.7,16.3,2.1,24.6,2
		c2.5,0,4.6,0.9,6.5,2.6c2.4,2.2,2.9,5,2.8,8.1C196.6,76,196.7,78.4,196.7,80.8z M176.8,85.6c0-1.3-0.1-2.6,0-3.8
		c0.1-0.8-0.1-1-0.9-1.1c-2.8-0.2-5.7-0.5-8.5-0.8c-15-1.7-28.9-6.4-41.5-14.7c-0.6-0.4-0.9-0.4-1.5,0c-6.7,4.5-13.9,7.7-21.6,10.1
		c-9.5,3-19.3,4.6-29.3,5.3c-1.8,0.1-1.8,0.1-1.7,1.6c0.4,12.5,0.8,25,2,37.5c0.7,7.3,1.7,14.6,3.4,21.8c1.6,6.6,3.9,13,8.1,18.5
		c3.8,5.1,8.8,8.8,14.1,12.1c8.1,5,16.4,9.4,24.4,14.6c0.5,0.4,0.9,0.1,1.3-0.1c3.5-2.1,7.1-4.2,10.6-6.4c5.8-3.7,12-6.8,17.7-10.6
		c8-5.3,13.4-12.4,16.4-21.5c2.8-8.6,4-17.4,4.9-26.3C175.9,109.7,176.3,97.7,176.8,85.6z"/>
</g>
</svg>
