<?xml version="1.0" encoding="utf-8"?>
<!-- Generator: Adobe Illustrator 22.0.0, SVG Export Plug-In . SVG Version: 6.00 Build 0)  -->
<svg version="1.1" id="Layer_1" xmlns="http://www.w3.org/2000/svg" xmlns:xlink="http://www.w3.org/1999/xlink" x="0px" y="0px"
	 viewBox="0 0 500 500" style="enable-background:new 0 0 500 500;" xml:space="preserve">
<style type="text/css">
	.st0{enable-background:new    ;}
	.st1{fill:#F6CBC7;}
	.st2{fill:#FFFFFF;}
</style>
<circle cx="250" cy="250" r="240"/>
<g class="st0">
	<path class="st1" d="M158,305.5c2.2,1.3,3.3,3.5,3.3,6.3c0,3.4-1.8,6.2-4.8,7.4c3.1,1.3,3.4,2.9,3.6,6.2c0.2,4.2,0.2,6.6,1.6,7.2
		v0.4h-12.5c-0.9-1.4-0.5-3.5-0.8-6c-0.2-2.2-1.3-2.9-4.1-2.9h-6.7v8.8h-11.4v-29h22.1C152.9,304,156.1,304.4,158,305.5z
		 M144.2,316.6c3.1,0,4.7-0.6,4.7-2.7c0-2.2-1.7-2.5-5-2.5h-6.3v5.2H144.2z"/>
	<path class="st1" d="M166,304h30.8v7.1h-19.5v3.5h15.8v7.1h-15.8v3.8h20.5v7.5H166V304z"/>
	<path class="st1" d="M201.4,304h11.3v21.1h17.7v8h-29V304z"/>
	<path class="st1" d="M233.9,304h30.8v7.1h-19.5v3.5h15.8v7.1h-15.8v3.8h20.5v7.5h-31.7V304z"/>
	<path class="st1" d="M277.4,304h14.3l11.7,29h-12.2l-1-2.9H278l-1,2.9h-12L277.4,304z M287.8,323l-3.5-10.2l-3.7,10.2H287.8z"/>
	<path class="st1" d="M317.3,324.2c0.2,1.5,2,2.4,5.1,2.4c3,0,4.6-0.7,4.6-2.1c0-1.2-1.4-2-4-2.3l-8.4-1c-7-0.8-10.5-3.8-10.5-8.6
		c0-6.6,5.4-9.3,16.7-9.3c11.8,0,17.8,2.7,18.2,9.2h-13.1c-0.3-1.8-2.2-2.8-5.6-2.8c-2.7,0-4.1,0.8-4.1,1.9c0,1.3,1.4,1.6,4.3,2
		l10.2,1.5c6.4,0.9,9.6,3.7,9.6,8.5c0,7.3-6.4,10.3-19.7,10.3c-11,0-16.8-3.6-16.9-9.7H317.3z"/>
	<path class="st1" d="M344.8,304h30.8v7.1H356v3.5h15.8v7.1H356v3.8h20.5v7.5h-31.7V304z"/>
</g>
<g class="st0">
	<path class="st1" d="M144.1,353.5c2.2,1.3,3.3,3.5,3.3,6.3c0,3.4-1.8,6.2-4.8,7.4c3.1,1.3,3.4,2.9,3.6,6.2c0.2,4.2,0.2,6.6,1.6,7.2
		v0.4h-12.5c-0.9-1.4-0.5-3.5-0.8-6c-0.2-2.2-1.3-2.9-4.1-2.9h-6.7v8.8h-11.4v-29h22.1C139,352,142.2,352.4,144.1,353.5z
		 M130.3,364.6c3.1,0,4.7-0.6,4.7-2.7c0-2.2-1.7-2.5-5-2.5h-6.3v5.2H130.3z"/>
	<path class="st1" d="M152.1,352h30.8v7.1h-19.5v3.5h15.8v7.1h-15.8v3.8h20.5v7.5h-31.7V352z"/>
	<path class="st1" d="M181.9,352H194l5,20.3l5.4-20.3h9.3l5.4,20.3l4.8-20.3H236l-10,29h-12.2l-4.9-18.8l-5,18.8h-12.1L181.9,352z"
		/>
	<path class="st1" d="M245,352h14.3l11.7,29h-12.2l-1-2.9h-12.4l-1,2.9h-12L245,352z M255.3,371l-3.5-10.2l-3.7,10.2H255.3z"/>
	<path class="st1" d="M304.8,353.5c2.2,1.3,3.3,3.5,3.3,6.3c0,3.4-1.8,6.2-4.8,7.4c3.1,1.3,3.4,2.9,3.6,6.2c0.2,4.2,0.2,6.6,1.6,7.2
		v0.4H296c-0.9-1.4-0.5-3.5-0.8-6c-0.2-2.2-1.3-2.9-4.1-2.9h-6.7v8.8h-11.4v-29h22.1C299.7,352,302.9,352.4,304.8,353.5z M291,364.6
		c3.1,0,4.7-0.6,4.7-2.7c0-2.2-1.7-2.5-5-2.5h-6.3v5.2H291z"/>
	<path class="st1" d="M331.5,352c12.2,0,18.5,5.2,18.5,14.6s-6.3,14.5-18.5,14.5h-18.6V352H331.5z M324.1,373.3h5.6
		c5.6,0,8.2-1.8,8.2-7.1c0-5.2-2.6-7.1-8.2-7.1h-5.6V373.3z"/>
	<path class="st1" d="M366.5,372.2c0.2,1.5,2,2.4,5.1,2.4c3,0,4.6-0.7,4.6-2.1c0-1.2-1.4-2-4-2.3l-8.4-1c-7-0.8-10.5-3.8-10.5-8.6
		c0-6.6,5.4-9.3,16.7-9.3c11.8,0,17.8,2.7,18.2,9.2h-13.1c-0.3-1.8-2.2-2.8-5.6-2.8c-2.7,0-4.1,0.8-4.1,1.9c0,1.3,1.4,1.6,4.3,2
		l10.2,1.5c6.4,0.9,9.6,3.7,9.6,8.5c0,7.3-6.4,10.3-19.7,10.3c-11,0-16.8-3.6-16.9-9.7H366.5z"/>
</g>
<g>
	<g>
		<g>
			<g>
				<path class="st2" d="M247.8,188.4v-15.1c0-5.2-2.2-10.1-6.1-13.5l-8.8-7.7l8.8-7.7c3.9-3.4,6.1-8.4,6.1-13.5v-15.1
					c2.3-0.8,4-3,4-5.6c0-3.3-2.7-6-6-6h-48c-3.3,0-6,2.7-6,6c0,2.6,1.7,4.8,4,5.6v15.1c0,5.2,2.2,10.1,6.1,13.5l8.8,7.7l-8.8,7.7
					c-3.9,3.4-6.1,8.4-6.1,13.5v15.1c-2.3,0.8-4,3-4,5.6c0,3.3,2.7,6,6,6h48c3.3,0,6-2.7,6-6C251.8,191.4,250.1,189.2,247.8,188.4z
					 M243.8,188h-44v-14.7c0-4,1.7-7.9,4.8-10.5l10.5-9.2c0.4-0.4,0.7-0.9,0.7-1.5s-0.2-1.1-0.7-1.5l-10.5-9.2
					c-3-2.7-4.8-6.5-4.8-10.5V116h44v14.7c0,4-1.7,7.9-4.8,10.5l-10.5,9.2c-0.4,0.4-0.7,0.9-0.7,1.5s0.2,1.1,0.7,1.5l10.5,9.2
					c3,2.7,4.8,6.5,4.8,10.5V188L243.8,188z"/>
			</g>
		</g>
		<g>
			<g>
				<path class="st2" d="M239.3,180.8l-16-20c-0.8-0.9-2.4-0.9-3.1,0l-16,20c-0.5,0.6-0.6,1.4-0.2,2.1c0.3,0.7,1,1.1,1.8,1.1h32
					c0.8,0,1.5-0.4,1.8-1.1C239.9,182.2,239.8,181.4,239.3,180.8z"/>
			</g>
		</g>
		<g>
			<g>
				<path class="st2" d="M231.6,137.3c-0.3-0.7-1-1.2-1.8-1.2h-16c-0.8,0-1.5,0.5-1.8,1.2s-0.1,1.6,0.4,2.2l8,8
					c0.4,0.4,0.9,0.6,1.4,0.6s1-0.2,1.4-0.6l8-8C231.8,138.9,231.9,138,231.6,137.3z"/>
			</g>
		</g>
	</g>
	<g>
		<g>
			<path class="st1" d="M327,140c-11.7-0.2-25.1,5.9-33.5,15.4c-8.1,0.2-15.9,3.5-21.7,9.3c-0.3,0.3-0.5,0.8-0.3,1.3
				c0.1,0.5,0.5,0.8,1,0.8l9.6,1.4l-1.2,1.3c-0.4,0.5-0.4,1.2,0.1,1.7l16.1,16.1c0.2,0.2,0.6,0.4,0.9,0.4s0.6-0.1,0.8-0.3l1.3-1.2
				l1.4,9.6c0.1,0.5,0.4,0.8,0.9,1c0.1,0,0.2,0.1,0.4,0.1c0.4,0,0.7-0.2,1-0.4c5.7-5.7,9-13.6,9.2-21.7c9.5-8.5,15.7-21.8,15.4-33.5
				C328.2,140.6,327.7,140.1,327,140L327,140z M315.5,161.6c-1.2,1.2-2.8,1.8-4.4,1.8s-3.2-0.6-4.4-1.8c-2.4-2.4-2.4-6.4,0-8.8
				c2.4-2.4,6.4-2.4,8.8,0S317.9,159.2,315.5,161.6z"/>
			<path class="st1" d="M275,182.3c-2.7,2.7-6.3,14.8-6.8,16.1c-0.1,0.4,0,0.9,0.3,1.2c0.2,0.2,0.6,0.4,0.9,0.4c0.1,0,0.2,0,0.4-0.1
				c1.4-0.4,13.5-4.1,16.1-6.8c3-3,3-7.9,0-10.9C283,179.3,278.1,179.3,275,182.3L275,182.3z"/>
		</g>
	</g>
</g>
</svg>
