<?xml version="1.0" encoding="utf-8"?>
<!-- Generator: Adobe Illustrator 22.0.0, SVG Export Plug-In . SVG Version: 6.00 Build 0)  -->
<svg version="1.1" id="Layer_1" xmlns="http://www.w3.org/2000/svg" xmlns:xlink="http://www.w3.org/1999/xlink" x="0px" y="0px"
	 viewBox="0 0 500 500" style="enable-background:new 0 0 500 500;" xml:space="preserve">
<style type="text/css">
	.st0{enable-background:new    ;}
	.st1{fill:#F6CBC7;}
	.st2{fill:#FFFFFF;}
</style>
<circle cx="250" cy="250" r="240"/>
<g class="st0">
	<path class="st1" d="M93.4,300.8c0,8.2,1.9,11.6,8.9,11.6c7,0,8.8-3.4,8.8-11.6v-21.3H128v22.9c0,15.2-8,21.9-25.7,21.9
		c-17.6,0-25.7-6.8-25.7-21.9v-22.9h16.9V300.8z"/>
	<path class="st1" d="M137.5,279.5h19.9l16.9,25.1v-25.1h16.3V323h-18.9l-18.3-25.5V323h-15.9V279.5z"/>
	<path class="st1" d="M200.1,279.5h16.9v31.6h26.6V323h-43.5V279.5z"/>
	<path class="st1" d="M275.7,278.3c19.4,0,29.3,7.9,29.3,22.9s-9.8,22.9-29.3,22.9c-19.4,0-29.3-7.9-29.3-22.9
		S256.3,278.3,275.7,278.3z M275.7,313c7.3,0,11.2-4.1,11.2-11.7c0-7.6-3.9-11.8-11.2-11.8s-11.2,4.1-11.2,11.8
		C264.6,308.9,268.5,313,275.7,313z"/>
	<path class="st1" d="M338.9,289.5c-7.3,0-11.2,4.1-11.2,11.8c0,7.6,3.9,11.7,11.2,11.7c5.2,0,8.5-2.3,9.5-7.1h19.4
		c-1.7,11.9-11.6,18.3-28.9,18.3c-19.4,0-29.3-7.9-29.3-22.9s9.8-22.9,29.3-22.9c18.2,0,28.2,7,28.8,19.4h-19.3
		C347.9,292.4,344.5,289.5,338.9,289.5z"/>
	<path class="st1" d="M374.1,279.5H391v15.1l15.5-15.1h22.8l-18.1,15.7l19.9,27.8h-20.9l-11.8-17.7l-7.4,6V323h-16.9V279.5z"/>
</g>
<g>
	<g>
		<g>
			<path class="st2" d="M278.9,166.5h-36.8v-12.3c0-13.5-11-24.5-24.5-24.5s-24.5,11-24.5,24.5V168c0,0.8,0.7,1.5,1.5,1.5h6.1
				c0.8,0,1.5-0.7,1.5-1.5v-13.8c0-8.5,6.9-15.3,15.3-15.3c8.5,0,15.3,6.9,15.3,15.3v12.3h-12.3c-3.4,0-6.1,2.8-6.1,6.1v33.7H285
				v-33.7C285,169.2,282.2,166.5,278.9,166.5z M254.3,189.5v6.2c0,2.5-2.1,4.6-4.6,4.6s-4.6-2.1-4.6-4.6v-6.2
				c-2.5-1.8-3.6-4.9-2.8-8c0.7-2.7,2.9-4.9,5.6-5.6c2.3-0.5,4.7,0,6.6,1.4c1.8,1.5,2.9,3.7,2.9,6
				C257.4,185.8,256.2,188,254.3,189.5z"/>
		</g>
	</g>
	<g>
		<g>
			<path class="st2" d="M214.5,202.8v6.1c0,3.4,2.8,6.1,6.1,6.1h58.3c3.4,0,6.1-2.8,6.1-6.1v-6.1H214.5z"/>
		</g>
	</g>
</g>
</svg>
