<?xml version="1.0" encoding="utf-8"?>
<!-- Generator: Adobe Illustrator 22.0.0, SVG Export Plug-In . SVG Version: 6.00 Build 0)  -->
<svg version="1.1" id="Layer_1" xmlns="http://www.w3.org/2000/svg" xmlns:xlink="http://www.w3.org/1999/xlink" x="0px" y="0px"
	 viewBox="0 0 500 500" style="enable-background:new 0 0 500 500;" xml:space="preserve">
<style type="text/css">
	.st0{enable-background:new    ;}
	.st1{fill:#F6CBC7;}
	.st2{fill:#FFFFFF;}
</style>
<circle cx="250" cy="250" r="240"/>
<g class="st0">
	<path class="st1" d="M99.2,277h22.6v42.2h35.4V335h-58V277z"/>
	<path class="st1" d="M200,275.4c25.9,0,39,10.5,39,30.6c0,20.1-13.1,30.6-39,30.6c-25.9,0-39-10.5-39-30.6
		C161,285.9,174.1,275.4,200,275.4z M200,321.6c9.7,0,14.9-5.4,14.9-15.6s-5.2-15.7-14.9-15.7s-14.9,5.5-14.9,15.7
		S190.3,321.6,200,321.6z"/>
	<path class="st1" d="M284.2,290.3c-9.7,0-14.9,5.5-14.9,15.7s5.2,15.6,14.9,15.6c6.9,0,11.3-3.1,12.6-9.4h25.9
		c-2.3,15.9-15.4,24.4-38.6,24.4c-25.9,0-39-10.5-39-30.6c0-20.1,13.1-30.6,39-30.6c24.3,0,37.6,9.4,38.4,25.9h-25.7
		C296.2,294.2,291.7,290.3,284.2,290.3z"/>
	<path class="st1" d="M331.2,277h22.5V297l20.6-20.1h30.4l-24.2,21l26.6,37.1h-27.9l-15.7-23.6l-9.8,8V335h-22.5V277z"/>
</g>
<g>
	<g>
		<path class="st2" d="M281.2,160.9h-3.4v-3.4c0-17.1-13.8-30.9-30.9-30.9S216,140.4,216,157.5v3.4h-3.4c-1.9,0-3.4,1.5-3.4,3.4
			v54.9c0,1.9,1.5,3.4,3.4,3.4h68.6c1.9,0,3.4-1.5,3.4-3.4v-54.9C284.7,162.4,283.1,160.9,281.2,160.9z M256.6,191.7
			c-1,2.9-3.3,5.2-6.3,6.3v7.5c0,1.9-1.5,3.4-3.4,3.4s-3.4-1.5-3.4-3.4V198c-5.4-1.9-8.2-7.8-6.3-13.1s7.8-8.2,13.1-6.3
			C255.7,180.5,258.5,186.4,256.6,191.7z M270.9,160.9h-48v-3.4c0-13.3,10.8-24,24-24c13.3,0,24,10.8,24,24V160.9z"/>
	</g>
</g>
</svg>
