<?xml version="1.0" encoding="utf-8"?>
<!-- Generator: Adobe Illustrator 21.1.0, SVG Export Plug-In . SVG Version: 6.00 Build 0)  -->
<svg version="1.1" id="layer" xmlns="http://www.w3.org/2000/svg" xmlns:xlink="http://www.w3.org/1999/xlink" x="0px" y="0px"
	 viewBox="0 0 652 652" style="enable-background:new 0 0 652 652;" xml:space="preserve">
<style type="text/css">
	.st0{fill:#F4A061;}
	.st1{fill:#98C483;}
</style>
<g transform="translate(4.80924 -13.204841)">
	<path id="path948" class="st0" d="M464.4,233.4L464.4,233.4c-13.4-5.4-28.6-8-45.1-8c-42,0-73.8,16.5-95.2,49.6h-3.6
		c0.9-13.9,1.8-25.9,2.7-36.2c-5.4,0.4-10.7,0.4-16.1,0.4c-15.6,0-30.8-1.8-46.5-4.9c-17.4-4-34.4-9.8-50.1-17.9l13,202.5
		c34.9,9.8,72,3.6,101-16.1c0-1.8,0-3.6,0-5.4v-9.8c0.4-32.2,5.8-55,16.1-68.8c10.3-13.9,26.8-21,49.6-21c9.4,0,17.9,1.8,25.5,5.8
		C424.2,276.8,441.2,251.7,464.4,233.4"/>
	<g>
		<path class="st1" d="M265.5,212.4c19.7,4.5,39.3,5.4,58.6,3.6c0-2.7,0-5.4,0-7.6V99.8H202.9l5.8,89.8
			C226.2,200.3,244.9,207.9,265.5,212.4"/>
		<path class="st1" d="M512.2,271.8c-7.6-10.7-16.1-19.2-25.9-26.4c-26.8,17.4-45.1,45.1-51.8,76c0.4,0.4,0.9,1.3,1.3,1.8
			c11.2,16.5,17,41.1,17,74.2s-5.4,58.1-16.5,75.5c-11.2,17.4-25.9,25.9-44.7,25.9c-23.2,0-40.2-7.6-51-23.2
			c-7.2-10.7-12.1-26.4-14.3-46.9c-21,11.6-45.1,17.9-69.3,17.9c-10.3,0-21-1.3-31.3-3.6l8,123.8h69.7l15.2-37.1h6.3
			c22.3,28.6,53.2,42.9,92.5,42.9c39.8,0,71.1-15.2,94.3-45.6c23.2-30.4,34.4-73.3,34.4-128.7C545.7,344.7,534.6,302.7,512.2,271.8"
			/>
		<path class="st1" d="M65.7,240.1c38,0,73.3-9.8,107.3-25.9c11.2-5.4,21.5-13,32.6-19.7c4-2.7,5.4-6.3,4.9-10.7
			c-2.7-31.3-18.8-54.5-41.1-74.6c-0.9-0.9-2.2-0.9-4-1.8c0,1.8-0.4,3.1,0,4.5c3.1,16.5,7.6,33.1,17.9,46.9c1.3,2.2,2.2,4.5,3.1,6.7
			l-1.3,0.9c-36.2-18.3-74.6-23.7-114-21c0,0.9-0.4,2.2-0.4,3.1c15.6,7.2,30.8,15.2,46.5,21.5s32.2,11.2,48.3,16.5
			c-49.2,2.7-93.9,15.2-129.2,52.3C45.6,239.7,55.4,240.1,65.7,240.1"/>
	</g>
</g>
</svg>
