<?xml version="1.0" encoding="utf-8"?>
<!-- Generator: Adobe Illustrator 21.1.0, SVG Export Plug-In . SVG Version: 6.00 Build 0)  -->
<svg version="1.1" id="Layer_1" xmlns="http://www.w3.org/2000/svg" xmlns:xlink="http://www.w3.org/1999/xlink" x="0px" y="0px"
	 viewBox="0 0 1000 1000" style="enable-background:new 0 0 1000 1000;" xml:space="preserve">
<style type="text/css">
	.st0{fill:#558ABB;}
	.st1{fill:#FDFEFD;}
	.st2{fill:#FBFCFC;}
</style>
<g>
	<path class="st0" d="M524.5,990.8c-15.6,0-31.1,0-46.7,0c-0.6-0.2-1.1-0.6-1.7-0.6c-14.8-0.6-29.5-2.3-44.2-3.6
		c-0.5-0.1-1.1-0.1-1.6-0.2c-1.5-0.5-3-0.8-4.5-0.6c-0.5-0.1-1.1-0.1-1.6-0.2c-11.7-2.1-23.4-4.2-35.1-6.4c-0.5-0.2-1.1-0.3-1.6-0.5
		c-0.5-0.1-1-0.2-1.4-0.3c-0.8-0.6-1.6-0.8-2.6-0.7c-0.3,0-0.5-0.1-0.8-0.1c-0.7-0.2-1.4-0.4-2.1-0.6c-13-3.8-26-7.5-39-11.3
		c-0.4-0.1-0.8-0.2-1.2-0.3l0.1,0c-1-0.3-2.1-0.7-3.1-1c-1.2-0.8-2.4-1.4-3.9-1.2l-0.1-0.2l-0.3,0c-0.3-0.1-0.5-0.2-0.8-0.3
		c-1.4-0.9-2.9-1.7-4.7-1.7c-0.6-0.6-1.3-0.9-2.2-0.8c-0.2-0.2-0.3-0.2-0.6-0.2c-1.4-1.1-3.1-1.7-4.8-2.1c-1.1-0.5-2.1-0.9-3.2-1.4
		c-38.4-15.7-74.3-35.8-107.3-60.9c-32.3-24.6-61.4-52.5-87.6-83.5C96,781.3,74.1,747.7,56.6,711.4c-26.4-54.9-40.8-113-44.6-173.8
		c-0.2-3.3,0.4-6.8-1.2-10c0-10.5,0-20.9,0-31.4c0.2-7.4,0.3-14.8,0.5-22.2c0.3-4.1,0.6-8.1,0.9-12.2c2.4-34.1,7.8-67.8,17.4-100.7
		c5.1-17.5,11.3-34.6,18.1-51.5c4-8.8,8-17.5,12-26.3c0.1-0.3,0.2-0.6,0.3-1c2.4-3.5,4.2-7.4,5.9-11.3l0.1-0.1
		c0.4-0.5,0.8-1,1.1-1.5c9.2-16.7,19.4-32.8,30.3-48.5c3.3-4.8,7.3-9.1,10-14.3c0.4-0.5,0.7-1,1.1-1.4l0.1-0.1
		c1.7-0.9,2.5-2.5,3.6-3.9c18.1-23,38.4-43.9,59.8-63.8C206,105.6,244,79,286.2,58.5c35.2-17.1,71.9-30,110.4-37.6
		c26-5.1,52.3-8.5,78.9-9.6c5.6,0.2,11.2-0.1,16.8-0.6c11.2,0,22.5,0,33.7,0c0.6,1,1.5,0.7,2.4,0.7c15.5,0.8,31,2.3,46.4,4.4
		c55.9,7.5,108.4,25,157.9,51.8c48.6,26.4,90.8,60.8,128.4,101c31.6,33.8,58.3,71.1,79.2,112.5c13.7,27.1,24.5,55.2,32.6,84.4
		c9.2,32.9,14.5,66.5,16.6,100.6c0.2,4.1-0.2,8.4,1.3,12.4c0,15.3,0,30.6,0,45.9c-1.2,0.8-0.7,2.1-0.8,3.1c-0.8,12-1.7,23.9-3,35.8
		c-4.4,39.5-13.8,77.8-28.1,114.8c-24.9,64.5-63.2,120.2-111.8,169.1c-22,22.1-45.8,42-71.5,59.8c-31.3,21.6-64.5,39.6-100.1,53
		c-44.8,16.8-91.2,26.6-139,29.4C532.5,989.7,528.4,989.2,524.5,990.8z M341.7,206.2c1.1,1.3,1.6,1.8,2.1,2.4
		c6,8.4,12.1,16.8,18.1,25.2c13.4,18.7,26.7,37.3,40.1,56c3.8,5.3,8.8,8.6,15.4,8.7c38.3,0.1,76.6,0.1,114.8,0.1
		c6.4,0,11.6-2.7,15.5-7.7c3.4-4.5,6.6-9,9.9-13.6c16.3-22.7,32.6-45.4,48.9-68c0.6-0.8,1-2.1,2.1-1.9c1.2,0.1,1.2,1.5,1.5,2.4
		c13.6,39.5,27.1,79.1,40.6,118.6c14.4,42.1,28.9,84.2,43.3,126.3c0.7,1.9,1.6,3.8,1.1,5.9c-5.8,26-16.1,49.9-33.7,70.3
		c-18.8,21.9-42.3,37.4-68.5,49c-13.7,6.1-27.7,10.9-42.1,15c-12.1,3.4-17.2,11.5-15.1,23.9c1.8,10.8,3.5,21.7,5.3,32.5
		c8.1,48.3,16.1,96.5,24.2,144.8c3,17.7,5.8,35.5,8.8,53.2c1.8,10.5,9.3,16.8,19.9,16.8c26.5,0,53.1,0,79.6,0c2.3,0,4.5-0.1,6.8-1
		c13.6-5.7,17-20.8,7-31.5c-1.7-1.8-2.9-3.8-3.8-6.1c-5.4-14.3-10.3-28.8-13.9-43.7c-7.1-29.1-10.7-58.5-6.4-88.4
		c1.7-11.9,2.9-24.2,11.6-33.8c1.6-1.8,3-3.8,4.6-5.7c17.5-21.1,39-34.1,67.5-32.9c8.9,0.4,18.1,0.7,26,5.2
		c14.4,8.2,23.1,20.9,26.5,37.1c4.2,20.1,1.5,40-4.2,59.3c-3.4,11.6-12.3,21.7-29.3,20.8c-10.6-0.6-19.8-4.6-28.2-10.6
		c-12.8-9.2-15.7-18.6-10.7-33.6c0.2-0.6,0.4-1.2,0.6-1.8c3.3-12.3,10.9-19.1,24-19.6c7-0.3,12.2-6.4,12.2-13.4
		c0-6.8-5-12.8-11.6-12.9c-16.9-0.4-31.3,4.8-41.3,19.4c-5.6,8.2-8.4,17.5-10.9,26.8c-5.6,20.3,0,37.8,15.5,51.6
		c13.8,12.3,30.2,19.3,48.7,21.2c15.9,1.6,30.2-2.4,41.6-14.1c8.2-8.4,13.1-18.9,16.2-30c4.9-17.8,7.6-36,6.5-54.5
		c-2.1-33.5-16.9-58.8-49.1-71.3c-25.2-9.8-50.8-10.1-76,0.7c-19.8,8.5-34.9,22.8-47.7,39.7c-4.8,6.3-10,12.3-12.5,20
		c-10.4,32.9-10.3,66.3-4.8,99.9c3.4,20.9,8.8,41.4,16,61.3c1.1,3,0.5,4.1-2.8,4c-12.8-0.1-25.5-0.1-38.3,0c-2.9,0-4.3-0.7-4.7-3.9
		c-2-13.2-4.4-26.4-6.6-39.6c-4.7-28.3-9.3-56.6-14-84.9c-3.9-23.3-7.8-46.5-11.8-69.8c-0.4-2.4,0.3-3.5,2.5-4.3
		c5.8-2,11.5-4.1,17.2-6.3c28.3-10.7,54.4-25.2,77.2-45.2c34.2-30,53.1-68.5,60.6-113c0.5-3.1,0.5-6.1-0.5-9.1
		c-17.6-51.4-35.2-102.7-52.8-154.1c-15.7-45.8-31.5-91.6-47.1-137.5c-2.6-7.5-7.1-12.7-15-14c-8.3-1.4-14.7,1.8-19.7,8.8
		c-24.5,34.3-49.2,68.6-73.8,102.9c-1.2,1.7-2.6,2.5-4.8,2.5c-29.6,0-59.2-0.1-88.8,0c-2.3,0-3.7-0.7-5.1-2.6
		c-12.9-18.1-25.8-36.1-38.8-54.1c-11.8-16.5-23.6-33-35.4-49.5c-4.8-6.8-11.5-9.2-19.4-7.9c-7.5,1.2-12.1,6-14.5,13.1
		c-2,5.9-4,11.8-6.1,17.7c-16.3,47.6-32.7,95.3-49,142.9c-14.9,43.5-29.9,87-44.9,130.6c-1.1,3.2-1.5,6.5-1,9.8
		c8.7,57.9,37.9,102.5,87.4,133.9c20.8,13.2,43.2,22.9,66.5,30.7c3.1,1,4.1,2.4,3.5,5.7c-4.2,24.6-8.2,49.3-12.3,74
		c-6.5,39.2-13.1,78.4-19.6,117.7c-0.9,5.4-0.9,5.4-6.3,5.4c-18.6,0.1-37.3-0.1-55.9,0.4c-10.1,0.3-17.6,9.3-17.1,19.4
		c0.5,9.9,8.9,18.2,18.6,18.2c25.1,0,50.3,0,75.4,0c9.9,0,17.3-5.9,19.1-15.8c2.6-14.4,5-28.9,7.4-43.3
		c5.2-31.4,10.4-62.9,15.6-94.3c5.2-31.6,10.6-63.1,15.8-94.7c1.8-11.2-3.8-19.8-14.8-22.8c-25.9-7.2-50.8-17-73.5-31.7
		c-37.2-24-61.4-57.2-70.8-100.8c-0.5-2.1-0.7-4.2,0.1-6.4c4.3-12.4,8.5-24.8,12.8-37.3c21.2-61.7,42.4-123.4,63.6-185.2
		C335.4,224.6,338.4,215.7,341.7,206.2z"/>
	<path class="st1" d="M10.8,527.6c1.6,3.2,1,6.7,1.2,10c3.8,60.8,18.2,118.8,44.6,173.8c17.5,36.4,39.4,70,65.4,100.8
		c26.2,31,55.3,58.9,87.6,83.5c33,25.2,68.9,45.3,107.3,60.9c1.1,0.4,2.1,0.9,3.2,1.4c1.1,1.9,3,2,4.8,2.1c0.2-0.1,0.4,0,0.6,0.2
		c0.6,0.8,1.2,1.3,2.2,0.8c1.8,0,3.3,0.8,4.7,1.7c-0.7,0.4-1.9,0.1-1.9,1.3c0,0.3,0.7,0.6,1.2,0.7c1.6,0.4,1.6-0.7,1.5-1.8l0.3,0
		c0,0,0.1,0.2,0.1,0.2c1,1.3,2.3,1.8,3.9,1.2c1,0.3,2.1,0.7,3.1,1c0,0-0.1,0-0.1,0c0.4,0.1,0.8,0.2,1.2,0.3c4.1,4.7,11.3,3.3,15.5,8
		c0.3,0.3,1.2,0.1,1.9,0.1c1.8,0.2,3.6,0.3,5.3,0.5c0.6,0.1,1.7,0.2,1.2,1c-2,3.3,1.5,1.5,1.6,1.5c3-0.7,5.8-1,8.6,1.2
		c1.4,1.1,3.4,0.2,4.9-1c0.7,0.2,1.4,0.4,2.1,0.6c0.3,0,0.5,0.1,0.8,0.1c0.9-0.1,1.8,0.1,2.6,0.7c0.4,0.5,0.9,0.6,1.4,0.3
		c0.5,0.2,1.1,0.3,1.6,0.5c2.4,0.9,4,3.6,7,3.5c6.9-0.3,13.6,1.5,20.3,2.5c2.6,0.4,5.2,1.6,7.9,0.4c0.5,0.1,1.1,0.1,1.6,0.2
		c1.3,1.6,2.9,1.2,4.5,0.6c0.5,0.1,1.1,0.1,1.6,0.2c0.3,1.3,1.3,2.1,2.5,1.8c4.4-1.2,8.4,1.4,12.7,1c1.3-0.1,2.5,0.2,3.2,1.5
		c-145.3,0-290.7,0-436,0.1c-2.9,0-3.5-0.6-3.5-3.5C10.8,834.1,10.8,680.8,10.8,527.6z"/>
	<path class="st2" d="M450.2,990.8c-0.7-1.3-1.9-1.6-3.2-1.5c-4.3,0.4-8.3-2.2-12.7-1c-1.2,0.3-2.1-0.5-2.5-1.8
		c14.7,1.4,29.4,3,44.2,3.6c0.6,0,1.1,0.4,1.7,0.6C468.6,990.8,459.4,990.8,450.2,990.8z"/>
	<path class="st2" d="M10.8,474c0.2,0,0.3,0,0.5,0c-0.2,7.4-0.3,14.8-0.5,22.2C10.8,488.8,10.8,481.4,10.8,474z"/>
	<path class="st2" d="M475.5,11.3c0-0.2,0-0.4,0-0.6c5.6,0,11.2,0,16.8,0C486.7,11.2,481.1,11.5,475.5,11.3z"/>
	<path class="st2" d="M341.7,206.2c-3.3,9.6-6.3,18.5-9.4,27.4c-21.2,61.7-42.4,123.4-63.6,185.2c-4.3,12.4-8.4,24.9-12.8,37.3
		c-0.8,2.2-0.5,4.2-0.1,6.4c9.3,43.6,33.5,76.8,70.8,100.8c22.7,14.7,47.6,24.4,73.5,31.7c11,3.1,16.7,11.6,14.8,22.8
		c-5.2,31.6-10.5,63.1-15.8,94.7c-5.2,31.4-10.4,62.9-15.6,94.3c-2.4,14.5-4.7,28.9-7.4,43.3c-1.8,9.9-9.2,15.8-19.1,15.8
		c-25.1,0-50.3,0-75.4,0c-9.7,0-18.2-8.3-18.6-18.2c-0.5-10.1,7-19.1,17.1-19.4c18.6-0.5,37.3-0.3,55.9-0.4c5.4,0,5.4,0,6.3-5.4
		c6.5-39.2,13.1-78.4,19.6-117.7c4.1-24.7,8.1-49.3,12.3-74c0.6-3.3-0.4-4.7-3.5-5.7c-23.3-7.8-45.7-17.5-66.5-30.7
		c-49.5-31.4-78.7-75.9-87.4-133.9c-0.5-3.3-0.1-6.6,1-9.8c15-43.5,29.9-87,44.9-130.6c16.4-47.6,32.7-95.3,49-142.9
		c2-5.9,4.1-11.8,6.1-17.7c2.4-7.1,7-11.9,14.5-13.1c7.9-1.3,14.6,1.1,19.4,7.9c11.8,16.5,23.6,33,35.4,49.5
		c12.9,18,25.9,36,38.8,54.1c1.3,1.9,2.8,2.6,5.1,2.6c29.6-0.1,59.2-0.1,88.8,0c2.1,0,3.5-0.8,4.8-2.5
		c24.6-34.3,49.3-68.5,73.8-102.9c5-7,11.4-10.1,19.7-8.8c8,1.3,12.5,6.5,15,14c15.6,45.9,31.4,91.7,47.1,137.5
		c17.6,51.4,35.2,102.7,52.8,154.1c1,3,1,6,0.5,9.1c-7.4,44.5-26.3,82.9-60.6,113c-22.8,20-48.9,34.5-77.2,45.2
		c-5.7,2.2-11.5,4.3-17.2,6.3c-2.2,0.8-2.9,1.9-2.5,4.3c4,23.2,7.9,46.5,11.8,69.8c4.7,28.3,9.3,56.6,14,84.9
		c2.2,13.2,4.5,26.4,6.6,39.6c0.5,3.1,1.8,3.9,4.7,3.9c12.8-0.1,25.5-0.1,38.3,0c3.3,0,3.9-1,2.8-4c-7.2-20-12.6-40.4-16-61.3
		c-5.5-33.6-5.6-67,4.8-99.9c2.4-7.7,7.7-13.7,12.5-20c12.8-16.9,27.9-31.2,47.7-39.7c25.2-10.8,50.8-10.5,76-0.7
		c32.3,12.6,47,37.9,49.1,71.3c1.2,18.5-1.5,36.7-6.5,54.5c-3.1,11.1-8,21.6-16.2,30c-11.4,11.7-25.7,15.7-41.6,14.1
		c-18.4-1.8-34.9-8.9-48.7-21.2c-15.5-13.8-21.1-31.2-15.5-51.6c2.6-9.3,5.3-18.6,10.9-26.8c10-14.6,24.4-19.8,41.3-19.4
		c6.6,0.2,11.6,6.2,11.6,12.9c0,7-5.2,13.1-12.2,13.4c-13.1,0.5-20.7,7.3-24,19.6c-0.2,0.6-0.4,1.2-0.6,1.8
		c-5,15-2.1,24.4,10.7,33.6c8.4,6,17.6,10,28.2,10.6c17,0.9,25.9-9.3,29.3-20.8c5.7-19.4,8.4-39.2,4.2-59.3
		c-3.4-16.2-12.2-28.9-26.5-37.1c-7.9-4.5-17.1-4.8-26-5.2c-28.4-1.2-49.9,11.8-67.5,32.9c-1.5,1.9-2.9,3.9-4.6,5.7
		c-8.8,9.6-9.9,21.8-11.6,33.8c-4.3,29.9-0.7,59.3,6.4,88.4c3.7,14.9,8.6,29.4,13.9,43.7c0.9,2.3,2.1,4.3,3.8,6.1
		c10,10.8,6.7,25.9-7,31.5c-2.2,0.9-4.5,1-6.8,1c-26.5,0-53.1,0-79.6,0c-10.6,0-18.2-6.3-19.9-16.8c-3-17.7-5.8-35.5-8.8-53.2
		C557.1,747.6,549,699.3,541,651c-1.8-10.8-3.5-21.7-5.3-32.5c-2-12.4,3-20.5,15.1-23.9c14.4-4.1,28.5-8.9,42.1-15
		c26.2-11.6,49.6-27.1,68.5-49c17.5-20.4,27.9-44.3,33.7-70.3c0.5-2.2-0.5-4-1.1-5.9c-14.4-42.1-28.9-84.2-43.3-126.3
		c-13.6-39.5-27.1-79.1-40.6-118.6c-0.3-0.9-0.2-2.3-1.5-2.4c-1.1-0.1-1.6,1.2-2.1,1.9c-16.3,22.7-32.6,45.4-48.9,68
		c-3.3,4.6-6.5,9.1-9.9,13.6c-3.9,5.1-9,7.7-15.5,7.7c-38.3,0-76.6,0-114.8-0.1c-6.6,0-11.6-3.4-15.4-8.7
		c-13.4-18.6-26.8-37.3-40.1-56c-6-8.4-12-16.8-18.1-25.2C343.3,208,342.8,207.4,341.7,206.2z"/>
	<path class="st2" d="M65.9,271c0.4-3.5,0.5-7,3.9-9.3c1.2-0.8,1.4-2.4,1.7-3.8c1-3.8,2.4-7.2,5.5-9.8c1-0.8,1.7-1.9,1.8-3.3
		c0.3-3.2,2.4-5.3,4.7-7.1c1.1-0.9,2.2-1.7,2.5-3.2c0.5-2.6,0.7-5.4,3.9-6.4c0.4-0.1,0.9-0.9,0.8-1.2c-0.9-3.3,1.7-4.6,3.5-6.4
		c2-2,3.8-4,5-6.9c1.3-3.2,4.2-6,8.2-6.7c-2.7,5.2-6.7,9.5-10,14.3c-10.9,15.6-21,31.8-30.3,48.5C66.7,270,66.2,270.5,65.9,271z"/>
	<path class="st2" d="M380.5,977.1c-1.5,1.1-3.5,2.1-4.9,1c-2.8-2.2-5.5-1.9-8.6-1.2c-0.1,0-3.6,1.8-1.6-1.5c0.5-0.8-0.6-0.9-1.2-1
		c-1.8-0.2-3.5-0.3-5.3-0.5c-0.6-0.1-1.6,0.2-1.9-0.1c-4.2-4.6-11.4-3.3-15.5-8C354.5,969.6,367.5,973.4,380.5,977.1z"/>
	<path class="st2" d="M47.6,309.6c-0.3-3.2-1.3-6.6,1.9-9.1c0.3-0.2,0.1-1.2,0-1.8c-0.2-1.1-0.2-2.3,0.5-2.9c4-3.6,4.7-9.7,9.7-12.5
		C55.6,292.1,51.6,300.9,47.6,309.6z"/>
	<path class="st2" d="M424.1,985.6c-2.7,1.3-5.3,0-7.9-0.4c-6.8-1-13.4-2.8-20.3-2.5c-3,0.1-4.5-2.6-7-3.5
		C400.7,981.3,412.4,983.5,424.1,985.6z"/>
	<path class="st2" d="M59.9,282.4c-0.3-2.8,1.1-5.3,1.4-8.1c0.1-1.2,2.9-2.2,4.5-3.2C64.2,275,62.4,278.8,59.9,282.4z"/>
	<path class="st2" d="M333.1,963.1c0.1,1.1,0.1,2.1-1.5,1.8c-0.4-0.1-1.2-0.5-1.2-0.7c0-1.2,1.2-1,1.9-1.3
		C332.6,962.9,332.9,963,333.1,963.1z"/>
	<path class="st2" d="M430.3,986.3c-1.6,0.7-3.2,1-4.5-0.6C427.3,985.5,428.8,985.9,430.3,986.3z"/>
	<path class="st2" d="M324.9,960.1c-1.9-0.1-3.7-0.2-4.8-2.1C321.8,958.4,323.5,958.9,324.9,960.1z"/>
	<path class="st2" d="M337.4,964.5c-1.6,0.6-2.9,0.1-3.9-1.2C335,963.1,336.2,963.7,337.4,964.5z"/>
	<path class="st2" d="M327.7,961.1c-1,0.5-1.7-0.1-2.2-0.8C326.3,960.1,327.1,960.4,327.7,961.1z"/>
	<path class="st2" d="M387.4,978.7c-0.6,0.3-1,0.2-1.4-0.3C386.4,978.6,386.9,978.6,387.4,978.7z"/>
	<path class="st2" d="M383.3,977.8c-0.3,0-0.5-0.1-0.8-0.1C382.8,977.8,383.1,977.8,383.3,977.8z"/>
	<path class="st2" d="M108.3,205.3c0,0,0.1-0.1,0.1-0.1C108.4,205.2,108.3,205.3,108.3,205.3z"/>
	<path class="st2" d="M340.3,965.5c0,0,0.1,0,0.1,0C340.5,965.5,340.3,965.5,340.3,965.5z"/>
</g>
</svg>
