<?xml version="1.0" encoding="utf-8"?>
<!-- Generator: Adobe Illustrator 21.1.0, SVG Export Plug-In . SVG Version: 6.00 Build 0)  -->
<svg version="1.1" id="Layer_1" xmlns="http://www.w3.org/2000/svg" xmlns:xlink="http://www.w3.org/1999/xlink" x="0px" y="0px"
	 viewBox="0 0 32 32" style="enable-background:new 0 0 32 32;" xml:space="preserve">
<style type="text/css">
	.st0{fill:#FF5AA9;}
</style>
<path class="st0" d="M14.3,13.7c0.6,1.1-0.8,1.4-1.4,1.5c-1,0.1-1.2-0.5-1-1.2c0.1-0.3,0.2-0.5,0.4-0.6c0.2-0.2,0.4-0.3,0.7-0.3
	c0.3,0,0.5,0,0.7,0.1C14,13.3,14.2,13.5,14.3,13.7L14.3,13.7z"/>
<path class="st0" d="M18.1,11.8c-0.7,5.4,8.8,4.3,8.6,8.6c0.9-1.2,1.3-4.6-1.4-6.3C22.8,12.6,19.6,13.4,18.1,11.8z"/>
<path class="st0" d="M23.6,9.7c-0.1-0.1-0.1-0.1-0.2-0.2C23.4,9.6,23.5,9.7,23.6,9.7z"/>
<path class="st0" d="M25.8,13.7L25.8,13.7c-0.1-0.2-0.2-0.3-0.3-0.5c-0.3-0.4-0.8-0.7-1.3-0.9c-0.3-0.1-0.7-0.1-1.1-0.2
	c-0.4,0-0.7,0-1.1-0.1c-0.8,0-1.5-0.1-2.3-0.3c-0.2-0.1-0.4-0.1-0.6-0.2c-0.1,0-0.2-0.1-0.3-0.1c-0.1,0-0.2-0.1-0.3-0.1
	c-0.4-0.2-0.7-0.4-1-0.7c-0.6-0.5-1-1.2-1.5-1.7c-0.4-0.6-0.9-1.2-1.4-1.7c-0.5-0.5-1.1-1-1.7-1.3c-0.7-0.3-1.4-0.5-2.1-0.6
	c0.8-0.1,1.5,0,2.2,0.3c0.7,0.3,1.4,0.7,1.9,1.2c0.4,0.3,0.7,0.7,1,1.1c2.4-0.5,4.3-0.1,5.8,0.8l0,0c0.5,0.3,0.9,0.6,1.3,0.9
	c0.1,0.1,0.1,0.1,0.2,0.2c0.3,0.3,0.6,0.6,0.9,0.9l0,0C25.3,11.8,25.8,13,25.8,13.7z"/>
<path class="st0" d="M25.8,13.7L25.8,13.7L25.8,13.7z"/>
<path class="st0" d="M11.1,5.9c0.6,0.1,1.2,0.3,1.6,0.8c0.4,0.5,0.5,1.1,0.7,1.6c0.1,0.4,0.2,0.9,0.3,1.3c0.1,0.2,0.2,0.4,0.3,0.6
	c0.1,0.2,0.2,0.3,0.3,0.5c0,0,0,0.1,0,0.1c0,0,0,0.1,0,0.1c-0.2,0.2-0.8,0-1-0.1c-0.4-0.2-0.7-0.4-1-0.8c-0.9-1-1.3-2.4-1.3-3.6
	C11.1,6.2,11.1,6.1,11.1,5.9z"/>
<path class="st0" d="M21.3,16.8c-1.3,3.7,4.6,6.1,2.4,9.9c2.3-0.9,3.4-3.8,2.4-6.1C25.3,18.6,22.8,17.9,21.3,16.8z"/>
<path class="st0" d="M13.4,21.6c0.4-0.3,0.7-0.5,1.2-0.7c0.4-0.2,0.9-0.3,1.3-0.4c0.9-0.2,1.8-0.2,2.5-0.5c0.4-0.1,0.7-0.3,1-0.6
	c0.3-0.3,0.5-0.6,0.6-0.9c0.1-0.4,0.2-0.8,0.2-1.2c0-0.4-0.1-0.9-0.3-1.3c0.3,0.3,0.6,0.8,0.7,1.2c0.1,0.5,0.1,0.9,0,1.4
	c-0.1,0.5-0.4,0.9-0.7,1.3c-0.3,0.3-0.8,0.6-1.2,0.8c-0.4,0.2-0.9,0.3-1.4,0.3c-0.5,0-0.9,0-1.3,0.1C15.1,21.2,14.2,21.3,13.4,21.6
	L13.4,21.6z"/>
<path class="st0" d="M21.8,28.1c-0.1,0.1-0.3,0.2-0.4,0.3c-0.1,0.1-0.3,0.2-0.5,0.3c-0.3,0.2-0.7,0.2-1.1,0.2c-1,0-1.7-0.8-2.1-1.6
	c-0.3-0.6-0.5-1.2-0.8-1.7c-0.5-0.8-1.3-1.4-2.2-1.3c-0.4,0-0.8,0.2-1,0.6c-0.6,0.9,0.2,2.1,1.3,2c0.1,0,0.2,0,0.3-0.1
	c0.1,0,0.2-0.1,0.2-0.1c0.1-0.1,0.3-0.3,0.3-0.5c0.1-0.2,0.1-0.4,0-0.6c0-0.2-0.2-0.4-0.3-0.5c0.2,0.1,0.4,0.3,0.4,0.5
	c0.1,0.2,0.1,0.4,0.1,0.7c0,0.2-0.1,0.5-0.3,0.6c-0.1,0.1-0.2,0.2-0.3,0.2c-0.1,0.1-0.2,0.1-0.3,0.2c-0.2,0.1-0.5,0.1-0.7,0.1
	c-0.3,0-0.7-0.2-0.9-0.4c-0.3-0.3-0.6-0.6-0.9-0.9c-0.3-0.4-0.7-0.6-1.2-0.9c-0.3-0.1-0.6-0.2-0.9-0.3c-0.2,0-0.3-0.1-0.5-0.1
	c-0.1,0-0.4-0.1-0.5,0c0.5-0.5,1.1-0.9,1.6-1.2c0.6-0.4,1.3-0.6,1.9-0.8c0.7-0.2,1.4-0.3,2.2-0.2c0.4,0,0.7,0.1,1.1,0.3
	c0.4,0.1,0.7,0.4,1,0.6c0.3,0.3,0.5,0.6,0.7,1c0.1,0.3,0.3,0.7,0.3,1.1c0.2,1.1,0.1,2.8,1.6,3c0.1,0,0.1,0,0.2,0l0.2,0
	c0.2,0,0.3,0,0.5-0.1C21.2,28.3,21.5,28.2,21.8,28.1L21.8,28.1z"/>
<path class="st0" d="M13.5,26.9L13.5,26.9L13.5,26.9z"/>
<path class="st0" d="M12.2,11.4c-0.1,0.2-0.1,0.4-0.3,0.6c-0.2,0.3-0.5,0.5-0.9,0.7c-0.3,0.1-0.6,0.2-1,0.3c-0.1,0-0.2,0-0.2,0
	c-0.2,0-0.4,0.1-0.6,0.2S9,13.5,8.9,13.7c0,0.1,0,0.2-0.1,0.3c0,0.3,0,0.6-0.1,0.9c-0.1,0.6-0.2,1.2-0.5,1.7
	c-0.3,0.7-0.7,1.3-0.6,2.1C7.7,19.3,8,19.7,8.4,20c0.7,0.7,2.1,1,1.8,2.6c-0.2,1-1.8,2-4.1,2.4c0.2,0-0.3-0.9-0.3-1
	c-0.2-0.4-0.5-0.8-0.7-1.2c-0.4-0.8-0.6-1.8-0.4-2.7c0.2-0.9,0.9-1.7,1.4-2.4c0.7-0.9,1.4-2,1.6-3.1c0-0.3,0.1-0.6,0.1-0.9
	c0.1-0.4,0.2-0.7,0.3-1.1c0.1-0.2,0.3-0.4,0.5-0.6c0.1-0.1,0.2-0.2,0.2-0.3c0-0.1,0-0.3-0.1-0.4L4.9,4.9l5.3,6.5
	c0.1,0.1,0.1,0.1,0.2,0.2c0.1,0,0.2,0.1,0.3,0.1c0.1,0,0.2,0,0.3-0.1c0.1,0,0.2-0.1,0.2-0.2c0.1-0.1,0.1-0.2,0.1-0.3
	c0-0.1,0-0.2-0.1-0.3c-0.3-0.4-0.7-0.9-1.1-1.3L8.8,7.9L6.2,4.6L2.6,0l4,4.3l2.8,3.1L10.8,9c0.5,0.5,0.9,1,1.4,1.6l0.1,0.1l0,0.1
	C12.3,11,12.3,11.2,12.2,11.4z"/>
<path class="st0" d="M13.4,26.8c-0.3-0.2-0.5-0.4-0.7-0.7C13,26.4,13.2,26.6,13.4,26.8L13.4,26.8z"/>
</svg>
